<svg width="192" height="192" viewBox="0 0 192 192" fill="none" xmlns="http://www.w3.org/2000/svg">
<path d="M111.247 98.6257C111.247 95.8317 110.105 83.4265 95.1499 83.4265C87.615 83.4265 79.6235 88.3439 79.6235 98.6257C79.6235 107.008 84.8751 111.813 90.9258 113.266C92.1816 113.601 93.3233 113.713 94.5791 113.825C92.7524 121.983 89.0992 131.259 81.7927 142.323C81.336 142.994 81.9068 144 82.706 144H95.1499C95.4924 144 95.8349 143.776 96.0632 143.553C107.936 127.459 111.247 107.902 111.247 98.6257Z" fill="#2196F3"/>
<path d="M95.4918 75.7161C103.31 75.7161 109.648 69.5116 109.648 61.8581C109.648 54.2045 103.31 48 95.4918 48C87.6735 48 81.3354 54.2045 81.3354 61.8581C81.3354 69.5116 87.6735 75.7161 95.4918 75.7161Z" fill="#2196F3"/>
</svg>
