<svg width="17" height="16" viewBox="0 0 17 16" fill="none" xmlns="http://www.w3.org/2000/svg">
<path d="M8.3335 8C7.2335 8 6.29183 7.60833 5.5085 6.825C4.72516 6.04167 4.3335 5.1 4.3335 4C4.3335 2.9 4.72516 1.95833 5.5085 1.175C6.29183 0.391667 7.2335 0 8.3335 0C9.4335 0 10.3752 0.391667 11.1585 1.175C11.9418 1.95833 12.3335 2.9 12.3335 4C12.3335 5.1 11.9418 6.04167 11.1585 6.825C10.3752 7.60833 9.4335 8 8.3335 8ZM0.333496 16V13.2C0.333496 12.6333 0.479329 12.1125 0.770996 11.6375C1.06266 11.1625 1.45016 10.8 1.9335 10.55C2.96683 10.0333 4.01683 9.64583 5.0835 9.3875C6.15016 9.12917 7.2335 9 8.3335 9C9.4335 9 10.5168 9.12917 11.5835 9.3875C12.6502 9.64583 13.7002 10.0333 14.7335 10.55C15.2168 10.8 15.6043 11.1625 15.896 11.6375C16.1877 12.1125 16.3335 12.6333 16.3335 13.2V16H0.333496ZM2.3335 14H14.3335V13.2C14.3335 13.0167 14.2877 12.85 14.196 12.7C14.1043 12.55 13.9835 12.4333 13.8335 12.35C12.9335 11.9 12.0252 11.5625 11.1085 11.3375C10.1918 11.1125 9.26683 11 8.3335 11C7.40016 11 6.47516 11.1125 5.5585 11.3375C4.64183 11.5625 3.7335 11.9 2.8335 12.35C2.6835 12.4333 2.56266 12.55 2.471 12.7C2.37933 12.85 2.3335 13.0167 2.3335 13.2V14ZM8.3335 6C8.8835 6 9.35433 5.80417 9.746 5.4125C10.1377 5.02083 10.3335 4.55 10.3335 4C10.3335 3.45 10.1377 2.97917 9.746 2.5875C9.35433 2.19583 8.8835 2 8.3335 2C7.7835 2 7.31266 2.19583 6.921 2.5875C6.52933 2.97917 6.3335 3.45 6.3335 4C6.3335 4.55 6.52933 5.02083 6.921 5.4125C7.31266 5.80417 7.7835 6 8.3335 6Z" fill="#626F86"/>
</svg>
