<svg width="19" height="20" viewBox="0 0 19 20" fill="none" xmlns="http://www.w3.org/2000/svg">
<path d="M3.6665 20C2.83317 20 2.12484 19.7083 1.5415 19.125C0.958171 18.5417 0.666504 17.8333 0.666504 17V3C0.666504 2.16667 0.958171 1.45833 1.5415 0.875C2.12484 0.291667 2.83317 0 3.6665 0H14.6665V16H3.6665C3.38317 16 3.14567 16.0958 2.954 16.2875C2.76234 16.4792 2.6665 16.7167 2.6665 17C2.6665 17.2833 2.76234 17.5208 2.954 17.7125C3.14567 17.9042 3.38317 18 3.6665 18H16.6665V2H18.6665V20H3.6665ZM6.6665 14H12.6665V2H6.6665V14ZM4.6665 14V2H3.6665C3.38317 2 3.14567 2.09583 2.954 2.2875C2.76234 2.47917 2.6665 2.71667 2.6665 3V14.175C2.83317 14.125 2.99567 14.0833 3.154 14.05C3.31234 14.0167 3.48317 14 3.6665 14H4.6665Z" fill="#626F86"/>
</svg>
